<svg width="84" height="84" viewBox="0 0 84 84" fill="none" xmlns="http://www.w3.org/2000/svg">
<rect x="0.908203" y="43.1759" width="39.8547" height="39.8547" rx="3.32122" fill="white"/>
<path d="M24.1015 68.0411H16.4073L15.2172 72.4971H12.5879L17.5144 53.4554H22.9944L27.9209 72.4971H25.2916L24.1015 68.0411ZM16.9608 65.6886H23.5479L20.974 55.6972H19.5348L16.9608 65.6886Z" fill="#B968A3"/>
<rect x="44.084" y="43.1759" width="39.8547" height="39.8547" rx="3.32122" fill="white"/>
<path d="M63.9837 73.2444C62.0094 73.2444 60.4964 72.8846 59.4447 72.165C58.393 71.4269 57.6642 70.366 57.2582 68.9821C56.8708 67.5799 56.677 65.7347 56.677 63.4468C56.677 61.085 56.88 59.203 57.2859 57.8007C57.6918 56.3984 58.4022 55.3467 59.417 54.6455C60.4503 53.9444 61.9079 53.5938 63.79 53.5938C65.3214 53.5938 67.0927 53.8152 69.1039 54.2581L69.0209 56.4445C67.268 56.1309 65.6997 55.974 64.3158 55.974C62.932 55.974 61.8895 56.2231 61.1883 56.7213C60.4872 57.201 60.0167 57.9852 59.7768 59.0738C59.537 60.1625 59.4262 61.74 59.4447 63.8066C59.4447 65.5963 59.5554 66.9802 59.7768 67.9581C60.0167 68.9176 60.4872 69.6464 61.1883 70.1446C61.9079 70.6243 62.9966 70.8642 64.4542 70.8642C65.672 70.8642 67.1942 70.7073 69.0209 70.3937L69.1039 72.6355C67.0743 73.0414 65.3675 73.2444 63.9837 73.2444Z" fill="#B968A3"/>
<rect x="24.1567" width="39.8547" height="39.8547" rx="3.32122" fill="white"/>
<path d="M37.497 10.7224H44.5823C46.5382 10.7224 47.9773 11.1191 48.8999 11.9125C49.8409 12.7059 50.3114 13.9698 50.3114 15.7042C50.3114 16.7928 50.1269 17.6692 49.7579 18.3335C49.3889 18.9793 48.7984 19.5144 47.9866 19.9388C48.946 20.3078 49.6564 20.8521 50.1177 21.5717C50.5974 22.2913 50.8373 23.2507 50.8373 24.4501C50.8373 27.9927 48.8446 29.764 44.8591 29.764H37.497V10.7224ZM44.5823 18.9701C45.6156 18.9701 46.3813 18.721 46.8795 18.2228C47.3777 17.7246 47.6268 16.9681 47.6268 15.9533C47.6268 14.9385 47.3685 14.2004 46.8518 13.7391C46.3352 13.2594 45.5326 13.0195 44.4439 13.0195H40.154V18.9701H44.5823ZM44.7484 27.4392C45.8739 27.4392 46.7227 27.2085 47.2947 26.7473C47.8666 26.286 48.1526 25.511 48.1526 24.4224C48.1526 22.319 46.981 21.2672 44.6377 21.2672H40.154V27.4392H44.7484Z" fill="#B968A3"/>
</svg>